<?xml version="1.0" encoding="iso-8859-1"?>
<!-- Uploaded to: SVG Repo, www.svgrepo.com, Generator: SVG Repo Mixer Tools -->
<svg height="800px" width="800px" version="1.1" id="Layer_1" xmlns="http://www.w3.org/2000/svg" xmlns:xlink="http://www.w3.org/1999/xlink" 
	 viewBox="0 0 512 512" xml:space="preserve">
<ellipse style="fill:#CFF09E;" cx="432.321" cy="218.248" rx="65.172" ry="67.215"/>
<path style="fill:#507C5C;" d="M432.327,299.963c-43.933,0-79.673-36.659-79.673-81.718s35.741-81.718,79.673-81.718
	S512,173.186,512,218.245S476.259,299.963,432.327,299.963z M432.327,165.532c-27.94,0-50.67,23.648-50.67,52.715
	s22.731,52.715,50.67,52.715c27.939,0,50.67-23.648,50.67-52.715S460.267,165.532,432.327,165.532z"/>
<path style="fill:#CFF09E;" d="M368.314,88.411c-15.376-72.037-100.59-83.254-135.707-29.863
	C197.49,5.157,112.277,16.374,96.901,88.411c-2.596,12.164,12.58,20.115,21.22,11.107c12.977-13.533,32.211-21.298,52.771-21.298
	c0.131,0,0.262,0.01,0.394,0.01c-43.145,19.603-59.932,76.541-21.317,119.75c8.282,9.269,23.775,1.961,21.597-10.361
	c-5.869-33.181,15.694-74.599,61.041-83.992c45.348,9.394,66.912,50.811,61.042,83.992c-2.177,12.322,13.317,19.631,21.597,10.361
	c38.615-43.209,21.828-100.146-21.317-119.75c0.131,0,0.262-0.01,0.394-0.01c20.56,0,39.794,7.766,52.771,21.298
	C355.734,108.526,370.91,100.575,368.314,88.411z"/>
<path style="fill:#507C5C;" d="M426.18,374.221h-19.972H82.781c27.844-45.384,78.113-75.043,135.324-79.358v24.36
	c0,8.009,6.492,14.502,14.502,14.502s14.502-6.492,14.502-14.502v-24.376c32.736,2.473,63.565,13.317,89.894,31.743
	c6.563,4.593,15.604,2.996,20.196-3.566c4.593-6.562,2.996-15.604-3.566-20.196c-31.215-21.845-67.788-34.501-106.524-37.034
	V123.978c24.74,12.844,36.121,39.293,32.26,61.117c-1.388,7.855,0.7,15.801,5.732,21.799c5.134,6.12,12.977,9.773,20.984,9.773
	c7.683,0,14.777-3.205,19.976-9.024c20.837-23.317,29.385-52.851,23.452-81.032c-0.747-3.544-1.713-7.019-2.887-10.409
	c2.95,1.112,6.095,1.692,9.329,1.692c0,0,0.001,0,0.003,0c8.175,0,16.13-3.799,21.278-10.163c5.045-6.233,6.962-14.378,5.261-22.345
	c-11.014-51.602-52.284-74.701-88.299-74.701c-23.301,0-45.27,9.165-61.591,25.165c-16.322-16-38.288-25.165-61.59-25.165
	c-36.015,0-77.283,23.098-88.299,74.702c-1.7,7.966,0.218,16.11,5.261,22.343c5.15,6.365,13.105,10.164,21.281,10.164
	c3.232,0,6.379-0.579,9.33-1.692c-1.175,3.389-2.142,6.865-2.887,10.409c-5.933,28.181,2.615,57.715,23.451,81.029
	c5.2,5.821,12.294,9.027,19.976,9.027c8.006,0,15.852-3.653,20.984-9.773c5.031-5.998,7.12-13.943,5.731-21.802
	c-3.86-21.821,7.521-48.27,32.26-61.114v141.805c-35.736,2.358-69.874,13.41-99.491,32.34
	c-30.162,19.278-53.791,45.461-68.865,76.099H39.03c-21.52,0-39.03,17.506-39.03,39.024s17.509,39.025,39.031,39.025h32.067
	c-0.851,3.199-1.311,6.556-1.311,10.021c0,21.517,17.511,39.025,39.035,39.025h264.098c21.52,0,39.03-17.506,39.03-39.025
	c0-3.464-0.46-6.822-1.311-10.021h15.54c21.525,0,39.035-17.506,39.035-39.025S447.704,374.221,426.18,374.221z M156.376,182.947
	c-11.574-15.414-15.933-33.072-12.293-50.363c3.801-18.05,16.211-33.433,33.2-41.153c6.215-2.823,9.619-9.6,8.175-16.272
	c-1.427-6.592-7.209-11.32-13.932-11.43c-0.212-0.007-0.423-0.012-0.635-0.012c-21.905,0-42.659,7.515-58.032,20.818
	c10.018-32.943,37.02-44.849,58.157-44.849c20.227,0,38.26,9.78,49.475,26.829c2.683,4.078,7.235,6.533,12.116,6.533
	c4.88,0,9.433-2.455,12.116-6.533c11.216-17.051,29.248-26.829,49.475-26.829c21.138,0,48.139,11.906,58.157,44.85
	c-15.373-13.305-36.128-20.818-58.032-20.818c-0.206,0-0.413,0.004-0.634,0.012c-6.724,0.11-12.506,4.836-13.933,11.43
	c-1.444,6.672,1.959,13.447,8.175,16.272c16.989,7.719,29.4,23.104,33.201,41.153c3.64,17.29-0.718,34.949-12.293,50.364
	c2.968-38.344-22.717-83.001-73.204-93.505c-0.977-0.207-1.988-0.322-3.026-0.322s-2.049,0.115-3.026,0.322
	C179.093,99.948,153.408,144.606,156.376,182.947z M426.18,423.267H273.216c-8.009,0-14.502,6.492-14.502,14.502
	c0,8.009,6.492,14.502,14.502,14.502h94.748h4.958c5.529,0,10.026,4.496,10.026,10.021c0,5.527-4.498,10.022-10.026,10.022H108.823
	c-5.531,0-10.032-4.496-10.032-10.022c0-5.525,4.501-10.021,10.032-10.021h73.445c8.009,0,14.502-6.492,14.502-14.502
	c0-8.009-6.492-14.502-14.502-14.502H39.031c-5.529,0-10.028-4.496-10.028-10.022s4.498-10.022,10.028-10.022h19.977h347.198h19.972
	c5.531,0,10.032,4.496,10.032,10.022S431.711,423.267,426.18,423.267z"/>
</svg>